<?xml version="1.0" encoding="UTF-8"?>
<svg id="Layer_2" data-name="Layer 2" xmlns="http://www.w3.org/2000/svg" viewBox="0 0 453.39 140.87">
  <defs>
    <style>
      .cls-1 {
        fill: #282c33;
      }

      .cls-2 {
        fill: #ff8f33;
      }
    </style>
  </defs>
  <g id="Layer_2-2" data-name="Layer 2">
    <g>
      <path class="cls-2" d="M61.57,0L0,140.87l453.39-16.7H37.57L61.57,0Z"/>
      <g>
        <path class="cls-1" d="M126.93,102c-4.81,3.35-12.97,5.54-20.55,5.54-16.62,0-26.97-6.41-27.11-23.32v-33.38h-12.54v-17.64h12.54v-16.33l24.78-6.85v23.18h21.72v17.64h-21.72v29.3c0,7,3.5,9.77,9.62,9.77,4.67,0,7.73-1.17,10.64-3.21l2.62,15.31Z"/>
        <path class="cls-1" d="M137.29,33.19h21.87l1.02,15.74c3.64-10.79,10.79-17.2,22.16-17.2,3.64,0,6.27.73,7.87,1.6l-2.48,20.41c-2.04-.73-4.96-1.31-9.18-1.31-8.89,0-16.47,5.54-16.47,16.91v36.73h-24.78V33.19Z"/>
        <path class="cls-1" d="M358.13,91.21l-1.46,14.14c-2.77,1.31-6.27,2.04-10.64,2.04-9.18,0-16.18-3.5-18.51-10.79-4.08,7.29-13.99,10.93-23.76,10.93-15.01,0-24.49-7-24.49-20.12,0-10.5,6.12-17.49,19.68-20.26l25.22-5.25v-2.04c0-6.85-4.08-11.08-10.49-11.08s-11.22,2.77-12.97,10.93l-20.99-4.96c2.62-13.99,14.29-23.03,35.42-23.03s33.67,9.62,33.67,27.7v26.68c0,3.94,1.75,5.68,5.1,5.68,1.6,0,3.06-.15,4.23-.58ZM324.16,79.11v-4.08l-11.81,2.48c-5.83,1.31-8.6,3.21-8.6,7.58s3.5,6.41,7.87,6.41c6.56,0,12.54-3.79,12.54-12.39Z"/>
        <path class="cls-1" d="M362.65,93.69l11.66-13.7c4.81,6.27,13.27,10.93,23.18,10.93,5.98,0,10.35-1.75,10.35-5.39,0-2.62-1.46-4.23-7.29-5.39l-10.2-2.04c-18.37-3.79-25.22-10.79-25.22-22.59s10.79-23.76,34.26-23.76c14.87,0,26.24,4.52,32.94,12.54l-11.81,13.41c-4.66-5.83-12.83-9.33-20.12-9.33s-10.64,2.04-10.64,5.39c0,2.62,2.04,4.37,8.6,5.69l13.26,2.62c15.01,2.77,21.14,10.2,21.14,20.41,0,14.14-11.37,25.07-34.26,25.07-14.58,0-27.55-4.81-35.86-13.85Z"/>
      </g>
      <path class="cls-1" d="M269.64,66.28c0-20.12-13.12-34.55-36.15-34.55s-38.19,13.85-38.19,37.9,15.16,37.9,39.36,37.9c15.3,0,29.3-6.71,33.53-19.24l-19.82-6.56c-2.19,5.25-6.41,8.31-13.7,8.31-8.6,0-13.99-4.08-15.31-14.14h49.71c.29-2.33.58-5.98.58-9.62ZM251.15,60.28c-.27,2.96-2.96,5.41-5.91,5.54h-23.23c-4.58-.35-7.42-5.32-4.91-9.36.95-1.52,2.48-2.52,4.23-2.87.03-3.28,1.93-6.26,4.92-7.58,3.74-1.65,8.23-.27,10.28,3.27,3.82-2.22,8.61-.05,9.37,4.29,2.33.42,4.38,2.13,5.02,4.44.08.28.2.77.22,1.04.03.33.03.9,0,1.23Z"/>
    </g>
  </g>
</svg>